<svg width="24.000000" height="24.000000" viewBox="0 0 24 24" fill="none" xmlns="http://www.w3.org/2000/svg" xmlns:xlink="http://www.w3.org/1999/xlink">
	<desc>
		Icon github
	</desc>
	<defs>
		<clipPath id="clip1_35">
			<rect id="icon/github" rx="0.000000" width="23.000000" height="23.000000" transform="translate(0.500000 0.500000)" fill="white" fill-opacity="0"/>
		</clipPath>
	</defs>
	<rect id="icon/github" rx="0.000000" width="23.000000" height="23.000000" transform="translate(0.500000 0.500000)" fill="#FFFFFF" fill-opacity="0"/>
	<g clip-path="url(#clip1_35)">
		<path id="Vector" d="M2.5 13.33L7.5 15.83C3.91 17 3.91 13.75 2.5 13.33ZM12.5 17.5L12.5 14.58C12.5 13.75 12.58 13.41 12.08 12.91C14.41 12.66 16.66 11.75 16.66 7.91C16.66 6.92 16.27 5.96 15.58 5.25C15.9 4.38 15.87 3.42 15.5 2.58C15.5 2.58 14.58 2.33 12.58 3.66C10.88 3.22 9.11 3.22 7.41 3.66C5.41 2.33 4.5 2.58 4.5 2.58C4.12 3.42 4.09 4.38 4.41 5.25C3.72 5.96 3.33 6.92 3.33 7.91C3.33 11.75 5.58 12.66 7.91 12.91C7.41 13.41 7.41 13.91 7.5 14.58L7.5 17.5" stroke="#4B4B4B" stroke-opacity="1.000000" stroke-width="1.250000" stroke-linejoin="round" stroke-linecap="round"/>
	</g>
</svg>
